<?xml version="1.0" encoding="utf-8"?>
<!-- Generator: Adobe Illustrator 15.0.0, SVG Export Plug-In . SVG Version: 6.00 Build 0)  -->
<!DOCTYPE svg PUBLIC "-//W3C//DTD SVG 1.1//EN" "http://www.w3.org/Graphics/SVG/1.1/DTD/svg11.dtd">
<svg version="1.1" xmlns="http://www.w3.org/2000/svg" xmlns:xlink="http://www.w3.org/1999/xlink" x="0px" y="0px" width="287.5px"
	 height="162.5px" viewBox="0.5 0 287.5 162.5" enable-background="new 0.5 0 287.5 162.5" xml:space="preserve">
<g id="Layer_2" display="none">
	<rect x="0.5" display="inline" fill="#FFFFFF" width="288" height="162.5"/>
</g>
<g id="svg8" inkscape:version="1.0.2-2 (e86c870879, 2021-01-15)" sodipodi:docname="makeItOrBuyIt.svg" xmlns:dc="http://purl.org/dc/elements/1.1/" xmlns:svg="http://www.w3.org/2000/svg" xmlns:rdf="http://www.w3.org/1999/02/22-rdf-syntax-ns#" xmlns:cc="http://creativecommons.org/ns#" xmlns:sodipodi="http://sodipodi.sourceforge.net/DTD/sodipodi-0.dtd" xmlns:inkscape="http://www.inkscape.org/namespaces/inkscape" display="none">
	<title  id="title1374">make it or buy it</title>
	<defs  display="inline">
		
		
			<inkscape:perspective  inkscape:vp_z="210 : -85.000015 : 1" inkscape:vp_y="0 : 1000.0001 : 0" inkscape:vp_x="0 : -85.000015 : 1" sodipodi:type="inkscape:persp3d" id="perspective32" inkscape:persp3d-origin="105.00001 : -134.5 : 1">
			</inkscape:perspective>
	</defs>
	
		<sodipodi:namedview  units="in" inkscape:document-rotation="0" inkscape:window-maximized="1" showguides="true" showgrid="false" inkscape:cy="120" inkscape:cx="192" inkscape:zoom="4" borderopacity="1.0" bordercolor="#666666" pagecolor="#ffffff" id="base" inkscape:bbox-nodes="false" inkscape:bbox-paths="false" inkscape:snap-bbox="false" inkscape:window-y="1432" inkscape:window-x="-8" inkscape:window-height="1377" inkscape:window-width="3440" inkscape:snap-grids="true" inkscape:guide-bbox="true" inkscape:current-layer="layer9" inkscape:document-units="in" inkscape:pageshadow="2" inkscape:pageopacity="0.0">
		</sodipodi:namedview>
	<g id="layer5" inkscape:label="make it" inkscape:groupmode="layer" display="inline">
	</g>
	<g id="layer8" inkscape:label="center lines" inkscape:groupmode="layer" display="inline">
	</g>
	<g display="inline">
		<text transform="matrix(1 0 0 1 26.8994 50.335)" font-family="'ArialMT'" font-size="58.3648">MAKE IT</text>
		<text transform="matrix(1 0 0 1 50.1255 150.9072)" font-family="'ArialMT'" font-size="58.3648">BUY IT</text>
		<text transform="matrix(1 0 0 1 113.2798 94.1641)" font-family="'ArialMT'" font-size="39.782">OR</text>
		<rect id="rect396" x="23.523" y="75.252" width="78.271" height="8.604"/>
		<rect id="rect396-2" x="187.024" y="75.252" width="78.275" height="8.604"/>
	</g>
	<rect id="rect541" x="7.817" y="4.405" fill="none" stroke="#000000" stroke-width="1.0361" width="272.365" height="171.19"/>
</g>
<g id="svg8_copy" inkscape:version="1.0.2-2 (e86c870879, 2021-01-15)" sodipodi:docname="makeItOrBuyIt.svg" xmlns:dc="http://purl.org/dc/elements/1.1/" xmlns:svg="http://www.w3.org/2000/svg" xmlns:rdf="http://www.w3.org/1999/02/22-rdf-syntax-ns#" xmlns:cc="http://creativecommons.org/ns#" xmlns:sodipodi="http://sodipodi.sourceforge.net/DTD/sodipodi-0.dtd" xmlns:inkscape="http://www.inkscape.org/namespaces/inkscape">
	<title  id="title1374">make it or buy it</title>
	<defs>
		
		
			<inkscape:perspective  inkscape:vp_z="210 : -85.000015 : 1" inkscape:vp_y="0 : 1000.0001 : 0" inkscape:vp_x="0 : -85.000015 : 1" sodipodi:type="inkscape:persp3d" id="perspective32" inkscape:persp3d-origin="105.00001 : -134.5 : 1">
			</inkscape:perspective>
	</defs>
	
		<sodipodi:namedview  units="in" inkscape:document-rotation="0" inkscape:window-maximized="1" showguides="true" showgrid="false" inkscape:cy="120" inkscape:cx="192" inkscape:zoom="4" borderopacity="1.0" bordercolor="#666666" pagecolor="#ffffff" id="base" inkscape:bbox-nodes="false" inkscape:bbox-paths="false" inkscape:snap-bbox="false" inkscape:window-y="1432" inkscape:window-x="-8" inkscape:window-height="1377" inkscape:window-width="3440" inkscape:snap-grids="true" inkscape:guide-bbox="true" inkscape:current-layer="layer9" inkscape:document-units="in" inkscape:pageshadow="2" inkscape:pageopacity="0.0">
		</sodipodi:namedview>
	<g id="layer5_1_" inkscape:label="make it" inkscape:groupmode="layer">
	</g>
	<g id="layer8_1_" inkscape:label="center lines" inkscape:groupmode="layer">
	</g>
	<g enable-background="new    ">
		<path fill="#FFFFFF" d="M31.231,51.335V9.556h8.322l9.889,29.582c0.912,2.755,1.577,4.816,1.995,6.184
			c0.475-1.52,1.216-3.752,2.223-6.697L63.663,9.556h7.438v41.779h-5.329V16.367L53.631,51.335h-4.987L36.561,15.769v35.566H31.231z
			"/>
		<path fill="#FFFFFF" d="M75.432,51.335L91.477,9.556h5.957l17.099,41.779h-6.298l-4.874-12.653H85.891l-4.588,12.653H75.432z
			 M87.487,34.179h14.164l-4.36-11.57c-1.33-3.515-2.318-6.402-2.964-8.664c-0.532,2.679-1.283,5.339-2.251,7.98L87.487,34.179z"/>
		<path fill="#FFFFFF" d="M118.722,51.335V9.556h5.528v20.718l20.747-20.718h7.495l-17.526,16.928l18.296,24.851h-7.296
			L131.09,30.189l-6.84,6.669v14.477H118.722z"/>
		<path fill="#FFFFFF" d="M157.992,51.335V9.556h30.209v4.93h-24.68v12.796h23.111v4.902h-23.111v14.221h25.648v4.93H157.992z"/>
		<path fill="#FFFFFF" d="M213.963,51.335V9.556h5.529v41.779H213.963z"/>
		<path fill="#FFFFFF" d="M239.868,51.335V14.486h-13.765v-4.93h33.115v4.93h-13.822v36.849H239.868z"/>
	</g>
	<g enable-background="new    ">
		<path fill="#FFFFFF" d="M54.4,153.907v-41.778h15.674c3.192,0,5.752,0.423,7.681,1.268c1.928,0.846,3.438,2.147,4.531,3.904
			c1.092,1.758,1.639,3.596,1.639,5.515c0,1.786-0.485,3.468-1.454,5.044c-0.969,1.578-2.432,2.85-4.389,3.818
			c2.526,0.742,4.469,2.006,5.828,3.791c1.358,1.786,2.038,3.895,2.038,6.326c0,1.957-0.414,3.776-1.24,5.458
			c-0.827,1.681-1.848,2.978-3.064,3.89s-2.741,1.602-4.574,2.066c-1.834,0.466-4.08,0.698-6.74,0.698H54.4z M59.929,129.684h9.034
			c2.451,0,4.208-0.161,5.272-0.484c1.406-0.418,2.465-1.111,3.177-2.08s1.069-2.186,1.069-3.648c0-1.387-0.333-2.607-0.998-3.662
			s-1.615-1.775-2.85-2.166c-1.235-0.389-3.354-0.584-6.355-0.584h-8.35V129.684z M59.929,148.977h10.402
			c1.786,0,3.04-0.066,3.762-0.199c1.272-0.229,2.337-0.607,3.192-1.14s1.558-1.306,2.109-2.323c0.551-1.016,0.826-2.189,0.826-3.52
			c0-1.557-0.399-2.91-1.197-4.061c-0.798-1.149-1.905-1.957-3.32-2.422c-1.416-0.466-3.453-0.699-6.113-0.699h-9.661V148.977z"/>
		<path fill="#FFFFFF" d="M120.973,112.129h5.528v24.138c0,4.199-0.475,7.534-1.425,10.003c-0.95,2.471-2.665,4.479-5.144,6.027
			c-2.479,1.549-5.733,2.322-9.761,2.322c-3.914,0-7.115-0.674-9.604-2.023c-2.489-1.348-4.265-3.301-5.329-5.855
			c-1.064-2.556-1.596-6.047-1.596-10.474v-24.138h5.528v24.109c0,3.629,0.337,6.303,1.012,8.022s1.833,3.044,3.477,3.976
			c1.643,0.931,3.652,1.396,6.027,1.396c4.065,0,6.963-0.922,8.692-2.765s2.594-5.386,2.594-10.63V112.129z"/>
		<path fill="#FFFFFF" d="M147.477,153.907v-17.698l-16.102-24.08h6.726l8.236,12.596c1.52,2.356,2.936,4.713,4.246,7.068
			c1.254-2.186,2.774-4.646,4.561-7.382l8.094-12.282h6.439l-16.671,24.08v17.698H147.477z"/>
		<path fill="#FFFFFF" d="M190.736,153.907v-41.778h5.529v41.778H190.736z"/>
		<path fill="#FFFFFF" d="M216.643,153.907v-36.849h-13.766v-4.93h33.115v4.93H222.17v36.849H216.643z"/>
	</g>
	<g enable-background="new    ">
		<path fill="#FFFFFF" d="M115.203,82.796c0-4.727,1.269-8.427,3.808-11.102c2.538-2.674,5.814-4.011,9.829-4.011
			c2.629,0,4.999,0.628,7.11,1.884c2.11,1.256,3.72,3.008,4.827,5.254c1.107,2.247,1.661,4.795,1.661,7.644
			c0,2.888-0.583,5.472-1.749,7.75c-1.166,2.28-2.816,4.005-4.953,5.177s-4.442,1.758-6.915,1.758c-2.681,0-5.077-0.646-7.188-1.942
			c-2.111-1.294-3.71-3.063-4.798-5.303S115.203,85.295,115.203,82.796z M119.088,82.854c0,3.432,0.922,6.135,2.768,8.11
			c1.845,1.976,4.16,2.962,6.944,2.962c2.836,0,5.17-0.996,7.002-2.991c1.833-1.994,2.749-4.824,2.749-8.488
			c0-2.318-0.392-4.342-1.175-6.07c-0.784-1.729-1.93-3.069-3.438-4.021c-1.509-0.952-3.202-1.428-5.08-1.428
			c-2.668,0-4.963,0.916-6.886,2.749C120.049,75.508,119.088,78.568,119.088,82.854z"/>
		<path fill="#FFFFFF" d="M147.352,96.665V68.188h12.625c2.539,0,4.469,0.256,5.789,0.767c1.32,0.512,2.377,1.415,3.166,2.71
			c0.79,1.295,1.186,2.726,1.186,4.292c0,2.021-0.654,3.723-1.963,5.109c-1.308,1.386-3.328,2.267-6.061,2.642
			c0.998,0.479,1.756,0.952,2.273,1.418c1.101,1.01,2.143,2.272,3.127,3.788l4.953,7.75h-4.739l-3.769-5.925
			c-1.101-1.709-2.008-3.017-2.719-3.923c-0.713-0.907-1.351-1.541-1.914-1.904c-0.563-0.362-1.137-0.615-1.719-0.758
			c-0.428-0.09-1.127-0.136-2.098-0.136h-4.371v12.646H147.352z M151.119,80.756h8.101c1.722,0,3.069-0.178,4.04-0.534
			c0.971-0.356,1.709-0.926,2.215-1.709c0.505-0.784,0.758-1.635,0.758-2.555c0-1.347-0.489-2.454-1.467-3.321
			c-0.979-0.868-2.522-1.302-4.633-1.302h-9.014V80.756z"/>
	</g>
	<rect id="rect396_1_" x="23.523" y="77.752" fill="#FFFFFF" width="78.271" height="8.604"/>
	<rect id="rect396-2_1_" x="187.024" y="77.752" fill="#FFFFFF" width="78.275" height="8.604"/>
	
		<rect id="rect541_1_" x="7.817" y="4.405" display="none" fill="none" stroke="#000000" stroke-width="1.0361" width="272.365" height="171.19"/>
</g>
</svg>
